<svg width="100" height="100" viewBox="0 0 100 100" fill="none" xmlns="http://www.w3.org/2000/svg">
<circle cx="50" cy="50" r="49.5" fill="#FEFEFE" stroke="#B5B5B5"/>
<rect x="18.25" y="47.25" width="30.8043" height="30.8043" rx="4.75" fill="#FDB055" stroke="#8D8D8D" stroke-width="0.5"/>
<rect x="34.25" y="15.25" width="30.8043" height="30.8043" rx="4.75" fill="#8CD3E2" stroke="#8D8D8D" stroke-width="0.5"/>
<rect x="50.25" y="47.25" width="30.8043" height="30.8043" rx="4.75" fill="#4780A7" stroke="#8D8D8D" stroke-width="0.5"/>
<mask id="path-5-outside-1_17_22" maskUnits="userSpaceOnUse" x="29" y="56" width="10" height="15" fill="black">
<rect fill="white" x="29" y="56" width="10" height="15"/>
<path d="M29.5852 70V56.9091H34.1619C35.0739 56.9091 35.826 57.0668 36.4183 57.3821C37.0107 57.6932 37.4517 58.1129 37.7415 58.6413C38.0313 59.1655 38.1761 59.7472 38.1761 60.3864C38.1761 60.9489 38.076 61.4134 37.8757 61.7798C37.6797 62.1463 37.4197 62.4361 37.0959 62.6491C36.7763 62.8622 36.429 63.0199 36.054 63.1222V63.25C36.4545 63.2756 36.8572 63.4162 37.2621 63.6719C37.6669 63.9276 38.0057 64.294 38.2784 64.7713C38.5511 65.2486 38.6875 65.8324 38.6875 66.5227C38.6875 67.179 38.5384 67.7692 38.2401 68.2933C37.9418 68.8175 37.4709 69.233 36.8274 69.5398C36.1839 69.8466 35.3466 70 34.3153 70H29.5852ZM31.1705 68.5938H34.3153C35.3509 68.5938 36.0859 68.3935 36.5206 67.9929C36.9595 67.5881 37.179 67.098 37.179 66.5227C37.179 66.0795 37.0661 65.6705 36.8402 65.2955C36.6143 64.9162 36.2926 64.6136 35.875 64.3878C35.4574 64.1577 34.9631 64.0426 34.392 64.0426H31.1705V68.5938ZM31.1705 62.6619H34.1108C34.5881 62.6619 35.0185 62.5682 35.402 62.3807C35.7898 62.1932 36.0966 61.929 36.3224 61.5881C36.5526 61.2472 36.6676 60.8466 36.6676 60.3864C36.6676 59.8111 36.4673 59.3232 36.0668 58.9226C35.6662 58.5178 35.0313 58.3153 34.1619 58.3153H31.1705V62.6619Z"/>
</mask>
<path d="M29.5852 70V56.9091H34.1619C35.0739 56.9091 35.826 57.0668 36.4183 57.3821C37.0107 57.6932 37.4517 58.1129 37.7415 58.6413C38.0313 59.1655 38.1761 59.7472 38.1761 60.3864C38.1761 60.9489 38.076 61.4134 37.8757 61.7798C37.6797 62.1463 37.4197 62.4361 37.0959 62.6491C36.7763 62.8622 36.429 63.0199 36.054 63.1222V63.25C36.4545 63.2756 36.8572 63.4162 37.2621 63.6719C37.6669 63.9276 38.0057 64.294 38.2784 64.7713C38.5511 65.2486 38.6875 65.8324 38.6875 66.5227C38.6875 67.179 38.5384 67.7692 38.2401 68.2933C37.9418 68.8175 37.4709 69.233 36.8274 69.5398C36.1839 69.8466 35.3466 70 34.3153 70H29.5852ZM31.1705 68.5938H34.3153C35.3509 68.5938 36.0859 68.3935 36.5206 67.9929C36.9595 67.5881 37.179 67.098 37.179 66.5227C37.179 66.0795 37.0661 65.6705 36.8402 65.2955C36.6143 64.9162 36.2926 64.6136 35.875 64.3878C35.4574 64.1577 34.9631 64.0426 34.392 64.0426H31.1705V68.5938ZM31.1705 62.6619H34.1108C34.5881 62.6619 35.0185 62.5682 35.402 62.3807C35.7898 62.1932 36.0966 61.929 36.3224 61.5881C36.5526 61.2472 36.6676 60.8466 36.6676 60.3864C36.6676 59.8111 36.4673 59.3232 36.0668 58.9226C35.6662 58.5178 35.0313 58.3153 34.1619 58.3153H31.1705V62.6619Z" fill="white"/>
<path d="M29.5852 70H29.4852V70.1H29.5852V70ZM29.5852 56.9091V56.8091H29.4852V56.9091H29.5852ZM36.4183 57.3821L36.3713 57.4704L36.3718 57.4706L36.4183 57.3821ZM37.7415 58.6413L37.6538 58.6894L37.654 58.6897L37.7415 58.6413ZM37.8757 61.7798L37.788 61.7319L37.7875 61.7327L37.8757 61.7798ZM37.0959 62.6491L37.0409 62.5656L37.0404 62.5659L37.0959 62.6491ZM36.054 63.1222L36.0277 63.0257L35.954 63.0458V63.1222H36.054ZM36.054 63.25H35.954V63.3438L36.0476 63.3498L36.054 63.25ZM37.2621 63.6719L37.2087 63.7564L37.2087 63.7564L37.2621 63.6719ZM38.2401 68.2933L38.327 68.3428L38.327 68.3428L38.2401 68.2933ZM36.8274 69.5398L36.7844 69.4495L36.7844 69.4495L36.8274 69.5398ZM31.1705 68.5938H31.0705V68.6938H31.1705V68.5938ZM36.5206 67.9929L36.5884 68.0664L36.5884 68.0664L36.5206 67.9929ZM36.8402 65.2955L36.7543 65.3466L36.7545 65.347L36.8402 65.2955ZM35.875 64.3878L35.8267 64.4754L35.8274 64.4757L35.875 64.3878ZM31.1705 64.0426V63.9426H31.0705V64.0426H31.1705ZM31.1705 62.6619H31.0705V62.7619H31.1705V62.6619ZM35.402 62.3807L35.3585 62.2907L35.3581 62.2908L35.402 62.3807ZM36.3224 61.5881L36.2396 61.5321L36.2391 61.5328L36.3224 61.5881ZM36.0668 58.9226L35.9957 58.9929L35.9961 58.9933L36.0668 58.9226ZM31.1705 58.3153V58.2153H31.0705V58.3153H31.1705ZM29.6852 70V56.9091H29.4852V70H29.6852ZM29.5852 57.0091H34.1619V56.8091H29.5852V57.0091ZM34.1619 57.0091C35.0631 57.0091 35.7977 57.165 36.3713 57.4704L36.4653 57.2938C35.8543 56.9685 35.0846 56.8091 34.1619 56.8091V57.0091ZM36.3718 57.4706C36.9487 57.7736 37.3745 58.1801 37.6538 58.6894L37.8292 58.5933C37.5289 58.0457 37.0726 57.6127 36.4648 57.2936L36.3718 57.4706ZM37.654 58.6897C37.935 59.1981 38.0761 59.7629 38.0761 60.3864H38.2761C38.2761 59.7314 38.1275 59.1329 37.829 58.593L37.654 58.6897ZM38.0761 60.3864C38.0761 60.9377 37.9779 61.3843 37.788 61.7319L37.9635 61.8278C38.1741 61.4424 38.2761 60.96 38.2761 60.3864H38.0761ZM37.7875 61.7327C37.5988 62.0855 37.3499 62.3624 37.0409 62.5656L37.1508 62.7327C37.4896 62.5098 37.7606 62.2071 37.9639 61.827L37.7875 61.7327ZM37.0404 62.5659C36.7299 62.773 36.3924 62.9262 36.0277 63.0257L36.0803 63.2186C36.4655 63.1136 36.8227 62.9515 37.1514 62.7324L37.0404 62.5659ZM35.954 63.1222V63.25H36.154V63.1222H35.954ZM36.0476 63.3498C36.4285 63.3741 36.8153 63.508 37.2087 63.7564L37.3155 63.5873C36.8992 63.3244 36.4806 63.177 36.0603 63.1502L36.0476 63.3498ZM37.2087 63.7564C37.5977 64.0022 37.9258 64.3557 38.1916 64.8209L38.3652 64.7217C38.0856 64.2323 37.7361 63.853 37.3155 63.5873L37.2087 63.7564ZM38.1916 64.8209C38.4537 65.2797 38.5875 65.8454 38.5875 66.5227H38.7875C38.7875 65.8194 38.6485 65.2175 38.3652 64.7217L38.1916 64.8209ZM38.5875 66.5227C38.5875 67.1632 38.4421 67.7361 38.1531 68.2439L38.327 68.3428C38.6346 67.8023 38.7875 67.1947 38.7875 66.5227H38.5875ZM38.1531 68.2439C37.8667 68.7472 37.4128 69.1498 36.7844 69.4495L36.8705 69.63C37.5289 69.3161 38.0168 68.8877 38.327 68.3428L38.1531 68.2439ZM36.7844 69.4495C36.159 69.7477 35.3379 69.9 34.3153 69.9V70.1C35.3553 70.1 36.2089 69.9455 36.8705 69.63L36.7844 69.4495ZM34.3153 69.9H29.5852V70.1H34.3153V69.9ZM31.1705 68.6938H34.3153V68.4937H31.1705V68.6938ZM34.3153 68.6938C35.3587 68.6938 36.1256 68.4929 36.5884 68.0664L36.4528 67.9194C36.0463 68.294 35.343 68.4937 34.3153 68.4937V68.6938ZM36.5884 68.0664C37.047 67.6435 37.279 67.1271 37.279 66.5227H37.079C37.079 67.0689 36.8721 67.5327 36.4528 67.9194L36.5884 68.0664ZM37.279 66.5227C37.279 66.0616 37.1612 65.6346 36.9259 65.2439L36.7545 65.347C36.9709 65.7063 37.079 66.0975 37.079 66.5227H37.279ZM36.9261 65.2443C36.6903 64.8484 36.3548 64.5336 35.9226 64.2998L35.8274 64.4757C36.2304 64.6937 36.5384 64.984 36.7543 65.3466L36.9261 65.2443ZM35.9233 64.3002C35.4882 64.0605 34.9766 63.9426 34.392 63.9426V64.1426C34.9495 64.1426 35.4266 64.2549 35.8267 64.4754L35.9233 64.3002ZM34.392 63.9426H31.1705V64.1426H34.392V63.9426ZM31.0705 64.0426V68.5938H31.2705V64.0426H31.0705ZM31.1705 62.7619H34.1108V62.5619H31.1705V62.7619ZM34.1108 62.7619C34.6015 62.7619 35.0472 62.6655 35.4459 62.4705L35.3581 62.2908C34.9898 62.4709 34.5747 62.5619 34.1108 62.5619V62.7619ZM35.4455 62.4707C35.8486 62.2758 36.1695 62 36.4058 61.6433L36.2391 61.5328C36.0237 61.858 35.731 62.1105 35.3585 62.2907L35.4455 62.4707ZM36.4053 61.644C36.6479 61.2847 36.7676 60.8641 36.7676 60.3864H36.5676C36.5676 60.8291 36.4572 61.2097 36.2396 61.5321L36.4053 61.644ZM36.7676 60.3864C36.7676 59.785 36.5571 59.2715 36.1375 58.8519L35.9961 58.9933C36.3775 59.3748 36.5676 59.8371 36.5676 60.3864H36.7676ZM36.1378 58.8522C35.7106 58.4205 35.0441 58.2153 34.1619 58.2153V58.4153C35.0184 58.4153 35.6218 58.615 35.9957 58.9929L36.1378 58.8522ZM34.1619 58.2153H31.1705V58.4153H34.1619V58.2153ZM31.0705 58.3153V62.6619H31.2705V58.3153H31.0705Z" fill="#D8D8D8" mask="url(#path-5-outside-1_17_22)"/>
<mask id="path-7-outside-2_17_22" maskUnits="userSpaceOnUse" x="43" y="24" width="12" height="15" fill="black">
<rect fill="white" x="43" y="24" width="12" height="15"/>
<path d="M45.1222 38H43.4602L48.267 24.9091H49.9034L54.7102 38H53.0483L49.1364 26.9801H49.0341L45.1222 38ZM45.7358 32.8864H52.4347V34.2926H45.7358V32.8864Z"/>
</mask>
<path d="M45.1222 38H43.4602L48.267 24.9091H49.9034L54.7102 38H53.0483L49.1364 26.9801H49.0341L45.1222 38ZM45.7358 32.8864H52.4347V34.2926H45.7358V32.8864Z" fill="white"/>
<path d="M45.1222 38V38.1H45.1928L45.2164 38.0335L45.1222 38ZM43.4602 38L43.3664 37.9655L43.317 38.1H43.4602V38ZM48.267 24.9091V24.8091H48.1972L48.1732 24.8746L48.267 24.9091ZM49.9034 24.9091L49.9973 24.8746L49.9732 24.8091H49.9034V24.9091ZM54.7102 38V38.1H54.8535L54.8041 37.9655L54.7102 38ZM53.0483 38L52.9541 38.0335L52.9777 38.1H53.0483V38ZM49.1364 26.9801L49.2306 26.9467L49.207 26.8801H49.1364V26.9801ZM49.0341 26.9801V26.8801H48.9635L48.9399 26.9467L49.0341 26.9801ZM45.7358 32.8864V32.7864H45.6358V32.8864H45.7358ZM52.4347 32.8864H52.5347V32.7864H52.4347V32.8864ZM52.4347 34.2926V34.3926H52.5347V34.2926H52.4347ZM45.7358 34.2926H45.6358V34.3926H45.7358V34.2926ZM45.1222 37.9H43.4602V38.1H45.1222V37.9ZM43.5541 38.0345L48.3609 24.9436L48.1732 24.8746L43.3664 37.9655L43.5541 38.0345ZM48.267 25.0091H49.9034V24.8091H48.267V25.0091ZM49.8095 24.9436L54.6164 38.0345L54.8041 37.9655L49.9973 24.8746L49.8095 24.9436ZM54.7102 37.9H53.0483V38.1H54.7102V37.9ZM53.1425 37.9665L49.2306 26.9467L49.0421 27.0136L52.9541 38.0335L53.1425 37.9665ZM49.1364 26.8801H49.0341V27.0801H49.1364V26.8801ZM48.9399 26.9467L45.0279 37.9665L45.2164 38.0335L49.1283 27.0136L48.9399 26.9467ZM45.7358 32.9864H52.4347V32.7864H45.7358V32.9864ZM52.3347 32.8864V34.2926H52.5347V32.8864H52.3347ZM52.4347 34.1926H45.7358V34.3926H52.4347V34.1926ZM45.8358 34.2926V32.8864H45.6358V34.2926H45.8358Z" fill="#D8D8D8" mask="url(#path-7-outside-2_17_22)"/>
<mask id="path-9-outside-3_17_22" maskUnits="userSpaceOnUse" x="59" y="56" width="13" height="15" fill="black">
<rect fill="white" x="59" y="56" width="13" height="15"/>
<path d="M71.1193 61H69.5341C69.4403 60.544 69.2763 60.1435 69.0419 59.7983C68.8118 59.4531 68.5305 59.1634 68.1982 58.929C67.87 58.6903 67.5057 58.5114 67.1051 58.392C66.7045 58.2727 66.2869 58.2131 65.8523 58.2131C65.0597 58.2131 64.3416 58.4134 63.6982 58.8139C63.0589 59.2145 62.5497 59.8047 62.1705 60.5845C61.7955 61.3643 61.608 62.321 61.608 63.4545C61.608 64.5881 61.7955 65.5447 62.1705 66.3246C62.5497 67.1044 63.0589 67.6946 63.6982 68.0952C64.3416 68.4957 65.0597 68.696 65.8523 68.696C66.2869 68.696 66.7045 68.6364 67.1051 68.517C67.5057 68.3977 67.87 68.2209 68.1982 67.9865C68.5305 67.7479 68.8118 67.456 69.0419 67.1108C69.2763 66.7614 69.4403 66.3608 69.5341 65.9091H71.1193C71 66.5781 70.7827 67.1768 70.4673 67.7053C70.152 68.2337 69.7599 68.6832 69.2912 69.054C68.8224 69.4205 68.2962 69.6996 67.7124 69.8913C67.1328 70.0831 66.5128 70.179 65.8523 70.179C64.7358 70.179 63.7429 69.9062 62.8736 69.3608C62.0043 68.8153 61.3203 68.0398 60.8217 67.0341C60.3232 66.0284 60.0739 64.8352 60.0739 63.4545C60.0739 62.0739 60.3232 60.8807 60.8217 59.875C61.3203 58.8693 62.0043 58.0938 62.8736 57.5483C63.7429 57.0028 64.7358 56.7301 65.8523 56.7301C66.5128 56.7301 67.1328 56.826 67.7124 57.0178C68.2962 57.2095 68.8224 57.4908 69.2912 57.8615C69.7599 58.228 70.152 58.6754 70.4673 59.2038C70.7827 59.728 71 60.3267 71.1193 61Z"/>
</mask>
<path d="M71.1193 61H69.5341C69.4403 60.544 69.2763 60.1435 69.0419 59.7983C68.8118 59.4531 68.5305 59.1634 68.1982 58.929C67.87 58.6903 67.5057 58.5114 67.1051 58.392C66.7045 58.2727 66.2869 58.2131 65.8523 58.2131C65.0597 58.2131 64.3416 58.4134 63.6982 58.8139C63.0589 59.2145 62.5497 59.8047 62.1705 60.5845C61.7955 61.3643 61.608 62.321 61.608 63.4545C61.608 64.5881 61.7955 65.5447 62.1705 66.3246C62.5497 67.1044 63.0589 67.6946 63.6982 68.0952C64.3416 68.4957 65.0597 68.696 65.8523 68.696C66.2869 68.696 66.7045 68.6364 67.1051 68.517C67.5057 68.3977 67.87 68.2209 68.1982 67.9865C68.5305 67.7479 68.8118 67.456 69.0419 67.1108C69.2763 66.7614 69.4403 66.3608 69.5341 65.9091H71.1193C71 66.5781 70.7827 67.1768 70.4673 67.7053C70.152 68.2337 69.7599 68.6832 69.2912 69.054C68.8224 69.4205 68.2962 69.6996 67.7124 69.8913C67.1328 70.0831 66.5128 70.179 65.8523 70.179C64.7358 70.179 63.7429 69.9062 62.8736 69.3608C62.0043 68.8153 61.3203 68.0398 60.8217 67.0341C60.3232 66.0284 60.0739 64.8352 60.0739 63.4545C60.0739 62.0739 60.3232 60.8807 60.8217 59.875C61.3203 58.8693 62.0043 58.0938 62.8736 57.5483C63.7429 57.0028 64.7358 56.7301 65.8523 56.7301C66.5128 56.7301 67.1328 56.826 67.7124 57.0178C68.2962 57.2095 68.8224 57.4908 69.2912 57.8615C69.7599 58.228 70.152 58.6754 70.4673 59.2038C70.7827 59.728 71 60.3267 71.1193 61Z" fill="white"/>
<path d="M71.1193 61V61.1H71.2386L71.2178 60.9826L71.1193 61ZM69.5341 61L69.4361 61.0201L69.4526 61.1H69.5341V61ZM69.0419 59.7983L68.9587 59.8538L68.9592 59.8545L69.0419 59.7983ZM68.1982 58.929L68.1393 59.0099L68.1405 59.0107L68.1982 58.929ZM67.1051 58.392L67.0766 58.4879L67.0766 58.4879L67.1051 58.392ZM63.6982 58.8139L63.6453 58.729L63.6451 58.7292L63.6982 58.8139ZM62.1705 60.5845L62.0805 60.5408L62.0803 60.5412L62.1705 60.5845ZM62.1705 66.3246L62.0803 66.3679L62.0805 66.3683L62.1705 66.3246ZM63.6982 68.0952L63.6451 68.1799L63.6453 68.1801L63.6982 68.0952ZM67.1051 68.517L67.0766 68.4212L67.0766 68.4212L67.1051 68.517ZM68.1982 67.9865L68.2563 68.0679L68.2565 68.0677L68.1982 67.9865ZM69.0419 67.1108L68.9589 67.0551L68.9587 67.0553L69.0419 67.1108ZM69.5341 65.9091V65.8091H69.4527L69.4362 65.8888L69.5341 65.9091ZM71.1193 65.9091L71.2178 65.9266L71.2387 65.8091H71.1193V65.9091ZM70.4673 67.7053L70.3815 67.654L70.3815 67.654L70.4673 67.7053ZM69.2912 69.054L69.3528 69.1328L69.3532 69.1324L69.2912 69.054ZM67.7124 69.8913L67.6812 69.7963L67.6809 69.7964L67.7124 69.8913ZM62.8736 69.3608L62.8204 69.4455L62.8204 69.4455L62.8736 69.3608ZM60.8217 67.0341L60.9113 66.9897L60.9113 66.9897L60.8217 67.0341ZM67.7124 57.0178L67.6809 57.1127L67.6812 57.1128L67.7124 57.0178ZM69.2912 57.8615L69.2292 57.9399L69.2296 57.9403L69.2912 57.8615ZM70.4673 59.2038L70.3815 59.2551L70.3816 59.2554L70.4673 59.2038ZM71.1193 60.9H69.5341V61.1H71.1193V60.9ZM69.632 60.9799C69.5359 60.5125 69.3672 60.0994 69.1246 59.7421L68.9592 59.8545C69.1853 60.1876 69.3447 60.5756 69.4361 61.0201L69.632 60.9799ZM69.1251 59.7428C68.8883 59.3876 68.5984 59.0889 68.2558 58.8473L68.1405 59.0107C68.4626 59.2378 68.7353 59.5186 68.9587 59.8538L69.1251 59.7428ZM68.257 58.8481C67.9194 58.6026 67.5448 58.4187 67.1337 58.2962L67.0766 58.4879C67.4666 58.6041 67.8207 58.7781 68.1393 59.0099L68.257 58.8481ZM67.1337 58.2962C66.7235 58.174 66.2962 58.1131 65.8523 58.1131V58.3131C66.2777 58.3131 66.6856 58.3714 67.0766 58.4879L67.1337 58.2962ZM65.8523 58.1131C65.0419 58.1131 64.3054 58.3181 63.6453 58.729L63.751 58.8988C64.3779 58.5086 65.0774 58.3131 65.8523 58.3131V58.1131ZM63.6451 58.7292C62.9877 59.1411 62.4667 59.7467 62.0805 60.5408L62.2604 60.6283C62.6327 59.8627 63.1302 59.2879 63.7513 58.8987L63.6451 58.7292ZM62.0803 60.5412C61.6971 61.338 61.508 62.3105 61.508 63.4545H61.708C61.708 62.3316 61.8938 61.3906 62.2606 60.6279L62.0803 60.5412ZM61.508 63.4545C61.508 64.5986 61.6971 65.571 62.0803 66.3679L62.2606 66.2812C61.8938 65.5184 61.708 64.5775 61.708 63.4545H61.508ZM62.0805 66.3683C62.4667 67.1624 62.9877 67.768 63.6451 68.1799L63.7513 68.0104C63.1302 67.6212 62.6327 67.0464 62.2604 66.2808L62.0805 66.3683ZM63.6453 68.1801C64.3054 68.591 65.0419 68.796 65.8523 68.796V68.596C65.0774 68.596 64.3779 68.4005 63.751 68.0103L63.6453 68.1801ZM65.8523 68.796C66.2962 68.796 66.7235 68.7351 67.1337 68.6129L67.0766 68.4212C66.6856 68.5377 66.2777 68.596 65.8523 68.596V68.796ZM67.1337 68.6129C67.5444 68.4905 67.9188 68.3089 68.2563 68.0679L68.14 67.9051C67.8212 68.1329 67.4669 68.3049 67.0766 68.4212L67.1337 68.6129ZM68.2565 68.0677C68.5988 67.822 68.8884 67.5213 69.1251 67.1663L68.9587 67.0553C68.7352 67.3906 68.4623 67.6738 68.1398 67.9053L68.2565 68.0677ZM69.125 67.1665C69.3672 66.8054 69.5359 66.3925 69.632 65.9294L69.4362 65.8888C69.3448 66.3291 69.1854 66.7174 68.9589 67.0551L69.125 67.1665ZM69.5341 66.0091H71.1193V65.8091H69.5341V66.0091ZM71.0209 65.8915C70.9035 66.5499 70.69 67.137 70.3815 67.654L70.5532 67.7565C70.8753 67.2167 71.0965 66.6063 71.2178 65.9266L71.0209 65.8915ZM70.3815 67.654C70.0722 68.1723 69.6881 68.6126 69.2292 68.9755L69.3532 69.1324C69.8318 68.7539 70.2318 68.295 70.5532 67.7565L70.3815 67.654ZM69.2296 68.9752C68.7703 69.3343 68.2543 69.6081 67.6812 69.7963L67.7436 69.9863C68.338 69.7911 68.8746 69.5066 69.3528 69.1328L69.2296 68.9752ZM67.6809 69.7964C67.1123 69.9845 66.503 70.079 65.8523 70.079V70.279C66.5226 70.279 67.1533 70.1817 67.7438 69.9863L67.6809 69.7964ZM65.8523 70.079C64.7529 70.079 63.7787 69.8107 62.9267 69.2761L62.8204 69.4455C63.7071 70.0018 64.7187 70.279 65.8523 70.279V70.079ZM62.9267 69.2761C62.0745 68.7414 61.4025 67.9804 60.9113 66.9897L60.7321 67.0785C61.2381 68.0991 61.934 68.8893 62.8204 69.4455L62.9267 69.2761ZM60.9113 66.9897C60.421 66.0006 60.1739 64.8233 60.1739 63.4545H59.9739C59.9739 64.8472 60.2253 66.0562 60.7321 67.0785L60.9113 66.9897ZM60.1739 63.4545C60.1739 62.0858 60.421 60.9085 60.9113 59.9194L60.7321 59.8306C60.2253 60.8529 59.9739 62.0619 59.9739 63.4545H60.1739ZM60.9113 59.9194C61.4025 58.9287 62.0745 58.1677 62.9267 57.633L62.8204 57.4636C61.934 58.0198 61.2381 58.81 60.7321 59.8306L60.9113 59.9194ZM62.9267 57.633C63.7787 57.0984 64.7529 56.8301 65.8523 56.8301V56.6301C64.7187 56.6301 63.7071 56.9073 62.8204 57.4636L62.9267 57.633ZM65.8523 56.8301C66.503 56.8301 67.1123 56.9245 67.6809 57.1127L67.7438 56.9228C67.1533 56.7274 66.5226 56.6301 65.8523 56.6301V56.8301ZM67.6812 57.1128C68.2541 57.301 68.7699 57.5767 69.2292 57.9399L69.3532 57.7831C68.875 57.4048 68.3382 57.1181 67.7436 56.9227L67.6812 57.1128ZM69.2296 57.9403C69.6883 58.2989 70.0722 58.7369 70.3815 59.2551L70.5532 59.1526C70.2318 58.614 69.8316 58.1571 69.3528 57.7827L69.2296 57.9403ZM70.3816 59.2554C70.69 59.7679 70.9034 60.3548 71.0209 61.0174L71.2178 60.9826C71.0966 60.2986 70.8754 59.6881 70.553 59.1523L70.3816 59.2554Z" fill="#D8D8D8" mask="url(#path-9-outside-3_17_22)"/>
</svg>
