<svg width="100" height="100" viewBox="0 0 100 100" fill="none" xmlns="http://www.w3.org/2000/svg">
<circle cx="50" cy="50" r="49.5" fill="#FEFEFE" stroke="#B5B5B5"/>
<path d="M24.0865 25.0076C24.0984 24.9838 24.1141 24.9618 24.1333 24.9426C24.1524 24.9235 24.1743 24.9078 24.198 24.8959C24.198 24.8959 24.198 24.8959 24.198 24.8959L47.1224 13.3971C47.133 13.3918 47.1439 13.3872 47.1552 13.3835C49.7868 12.5035 53.3535 12.263 56.0455 14.5135C57.4653 15.7004 58.6483 17.0059 59.3822 17.8157C59.6242 18.0827 59.8173 18.2958 59.954 18.433C59.9543 18.4334 59.9547 18.4337 59.9551 18.4341L68.3338 26.6241C68.3341 26.6244 68.3345 26.6248 68.3349 26.6251C68.3349 26.6251 68.3349 26.6252 68.3349 26.6252C68.3353 26.6255 68.3357 26.6259 68.3361 26.6263L24.0865 25.0076ZM24.0865 25.0076C24.0861 25.0084 24.0857 25.0092 24.0853 25.01C21.1301 31.0837 14.6983 44.3645 12.6208 48.8804C10.4914 53.5086 12.756 56.9188 14.1951 58.0671L25.4833 69.3323M24.0865 25.0076L25.4833 69.3323M25.4833 69.3323C25.6018 69.4687 25.7317 69.5992 25.8742 69.7225L28.4326 72.3276L28.4331 72.3281L28.4335 72.3285L41.05 85.1752C41.097 85.223 41.1613 85.25 41.2284 85.25H71.1608C71.2988 85.25 71.4108 85.1381 71.4108 85V72.4029H84C84.1381 72.4029 84.25 72.291 84.25 72.1529V42.5392C84.25 42.4726 84.2234 42.4088 84.1762 42.3618L68.3895 26.6785C68.3895 26.6785 68.3895 26.6785 68.3894 26.6785L68.3886 26.6777L25.4833 69.3323ZM24.3101 25.1194L24.3132 25.6845M24.3101 25.1194L24.8616 25.1224M24.3101 25.1194L24.5615 25.3717M68.1613 26.8051L68.2125 26.855M25.8813 69.7287C25.8816 69.7289 25.8819 69.7292 25.8822 69.7294L26.0453 69.5399L25.8813 69.7287Z" fill="#8D8D8D" stroke="#8D8D8D" stroke-width="0.5" stroke-linecap="round" stroke-linejoin="round"/>
<path d="M71.1492 84.8471H41.2168L28.5999 72H71.1492V84.8471Z" fill="#41C4FF"/>
<path d="M24.46 25.12L24.6769 64.7501C24.6769 65.9373 24.6769 67.8439 25.8163 69.1624L26.1952 69.5405C26.0566 69.4213 25.9307 69.2948 25.8163 69.1624L14.5116 57.8808C13.142 56.796 10.9216 53.4982 12.9978 48.9855C15.0739 44.4727 21.5043 31.1948 24.46 25.12L63.936 25.3377C65.6712 25.3377 67.4973 25.9878 68.3624 26.8557L84.1499 42.5398V72.1535H71.3107L24.46 25.12Z" fill="#04599C"/>
<path d="M24.6769 64.7495L24.46 25.1194L47.3844 13.6206C49.9796 12.7527 53.4399 12.5358 56.0351 14.7054C57.9147 16.2768 59.3512 18.0321 59.9279 18.6106L68.3112 26.8051C68.3286 26.8216 68.3456 26.8383 68.3623 26.855L68.3112 26.8051C67.4268 25.9624 65.6377 25.3371 63.936 25.3371L24.46 25.1194L71.3107 72.1529H28.7613L26.1952 69.5399C24.6769 68.2334 24.6769 66.056 24.6769 64.7495Z" fill="#2CB7F6"/>
</svg>
