<svg width="100" height="100" viewBox="0 0 100 100" fill="none" xmlns="http://www.w3.org/2000/svg">
<circle cx="50" cy="50" r="50" fill="#BDC2C0"/>
<g filter="url(#filter0_d_22_24)">
<path d="M71.6149 83.5079H43.9069L32.2275 71.6155H71.6149V83.5079Z" fill="#41C4FF"/>
<path d="M28.3953 28.2193L28.596 64.9044C28.596 66.0034 28.596 67.7682 29.6508 68.9888L30.0015 69.3388C29.8732 69.2284 29.7567 69.1114 29.6508 68.9888L19.1862 58.5455C17.9183 57.5413 15.863 54.4886 17.7849 50.3113C19.7067 46.1339 25.6592 33.8427 28.3953 28.2193L64.9377 28.4209C66.5439 28.4209 68.2343 29.0227 69.0351 29.826L83.6494 44.3446V71.7576H71.7643L28.3953 28.2193Z" fill="#04599C"/>
<path d="M28.5963 64.9038L28.3955 28.2187L49.6163 17.5744C52.0187 16.7711 55.2218 16.5703 57.6242 18.5786C59.3641 20.0332 60.6938 21.6581 61.2277 22.1937L68.988 29.7792C69.0041 29.7945 69.0199 29.8099 69.0353 29.8254L68.988 29.7792C68.1694 28.9991 66.5132 28.4203 64.9379 28.4203L28.3955 28.2187L71.7646 71.757H32.3772L30.0018 69.3382C28.5963 68.1288 28.5963 66.1132 28.5963 64.9038Z" fill="#2CB7F6"/>
</g>
<defs>
<filter id="filter0_d_22_24" x="13" y="17" width="74.6494" height="74.5079" filterUnits="userSpaceOnUse" color-interpolation-filters="sRGB">
<feFlood flood-opacity="0" result="BackgroundImageFix"/>
<feColorMatrix in="SourceAlpha" type="matrix" values="0 0 0 0 0 0 0 0 0 0 0 0 0 0 0 0 0 0 127 0" result="hardAlpha"/>
<feOffset dy="4"/>
<feGaussianBlur stdDeviation="2"/>
<feComposite in2="hardAlpha" operator="out"/>
<feColorMatrix type="matrix" values="0 0 0 0 0 0 0 0 0 0 0 0 0 0 0 0 0 0 0.25 0"/>
<feBlend mode="normal" in2="BackgroundImageFix" result="effect1_dropShadow_22_24"/>
<feBlend mode="normal" in="SourceGraphic" in2="effect1_dropShadow_22_24" result="shape"/>
</filter>
</defs>
</svg>
